# xmcd
#
# Track frame offsets:
#	150
#	15948
#	33258
#	51234
#	67477
#	84244
#	104285
#	120839
#	136102
#	149444
#	164412
#	178619
#
# Disc length: 2654 seconds
# Revision: 1
# Processed by: cddbd v1.5.2PL0 Copyright (c) Steve Scherf et al.
# Submitted via: dBpowerAMP V12.0
#
DISCID=990a5c0c
DTITLE=Steve McNaughton - Eagles Aloft
DYEAR=2013
DGENRE=Country
TTITLE0=Cross Country
TTITLE1=One more shot
TTITLE2=Floating
TTITLE3=Running Dream
TTITLE4=When you've got it good
TTITLE5=One of these nights
TTITLE6=Sands of Time
TTITLE7=What would you do if I told you
TTITLE8=Everybody needs love
TTITLE9=Changing Lanes
TTITLE10=Under the Sycamore
TTITLE11=The Navigator
EXTD=
EXTT0=
EXTT1=
EXTT2=
EXTT3=
EXTT4=
EXTT5=
EXTT6=
EXTT7=
EXTT8=
EXTT9=
EXTT10=
EXTT11=
PLAYORDER=
